<svg id="visual" viewBox="0 0 900 600" width="900" height="600" xmlns="http://www.w3.org/2000/svg" xmlns:xlink="http://www.w3.org/1999/xlink" version="1.1"><rect x="0" y="0" width="900" height="600" fill="#040a0d"></rect><path d="M0 462L15 469.2C30 476.3 60 490.7 90 497C120 503.3 150 501.7 180 496.5C210 491.3 240 482.7 270 481.8C300 481 330 488 360 482C390 476 420 457 450 455.3C480 453.7 510 469.3 540 479C570 488.7 600 492.3 630 490.2C660 488 690 480 720 470.8C750 461.7 780 451.3 810 452.5C840 453.7 870 466.3 885 472.7L900 479L900 601L885 601C870 601 840 601 810 601C780 601 750 601 720 601C690 601 660 601 630 601C600 601 570 601 540 601C510 601 480 601 450 601C420 601 390 601 360 601C330 601 300 601 270 601C240 601 210 601 180 601C150 601 120 601 90 601C60 601 30 601 15 601L0 601Z" fill="#0daaf9" stroke-linecap="round" stroke-linejoin="miter"></path></svg>