<svg id="visual" viewBox="0 0 675 900" width="675" height="900" xmlns="http://www.w3.org/2000/svg" xmlns:xlink="http://www.w3.org/1999/xlink" version="1.1"><rect x="0" y="0" width="675" height="900" fill="#040a0d"></rect><path d="M0 828L11.3 822.8C22.7 817.7 45.3 807.3 67.8 801.7C90.3 796 112.7 795 135.2 802.7C157.7 810.3 180.3 826.7 202.8 829.3C225.3 832 247.7 821 270.2 818.2C292.7 815.3 315.3 820.7 337.8 825.5C360.3 830.3 382.7 834.7 405 830.8C427.3 827 449.7 815 472.2 812.7C494.7 810.3 517.3 817.7 540 823.8C562.7 830 585.3 835 607.8 834.3C630.3 833.7 652.7 827.3 663.8 824.2L675 821L675 901L663.8 901C652.7 901 630.3 901 607.8 901C585.3 901 562.7 901 540 901C517.3 901 494.7 901 472.2 901C449.7 901 427.3 901 405 901C382.7 901 360.3 901 337.8 901C315.3 901 292.7 901 270.2 901C247.7 901 225.3 901 202.8 901C180.3 901 157.7 901 135.2 901C112.7 901 90.3 901 67.8 901C45.3 901 22.7 901 11.3 901L0 901Z" fill="#0daaf9" stroke-linecap="round" stroke-linejoin="miter"></path></svg>