<svg id="visual" viewBox="0 0 900 600" width="900" height="600" xmlns="http://www.w3.org/2000/svg" xmlns:xlink="http://www.w3.org/1999/xlink" version="1.1"><rect x="0" y="0" width="900" height="600" fill="#040a0d"></rect><path d="M0 551L15 547.7C30 544.3 60 537.7 90 534C120 530.3 150 529.7 180 534.8C210 540 240 551 270 552.8C300 554.7 330 547.3 360 545.3C390 543.3 420 546.7 450 549.8C480 553 510 556 540 553.5C570 551 600 543 630 541.5C660 540 690 545 720 549.2C750 553.3 780 556.7 810 556.2C840 555.7 870 551.3 885 549.2L900 547L900 601L885 601C870 601 840 601 810 601C780 601 750 601 720 601C690 601 660 601 630 601C600 601 570 601 540 601C510 601 480 601 450 601C420 601 390 601 360 601C330 601 300 601 270 601C240 601 210 601 180 601C150 601 120 601 90 601C60 601 30 601 15 601L0 601Z" fill="#0daaf9" stroke-linecap="round" stroke-linejoin="miter"></path></svg>